<?xml version="1.0" encoding="utf-8"?>
<!-- Generator: Adobe Illustrator 26.1.0, SVG Export Plug-In . SVG Version: 6.00 Build 0)  -->
<svg version="1.1" id="Layer_1" xmlns="http://www.w3.org/2000/svg" xmlns:xlink="http://www.w3.org/1999/xlink" x="0px" y="0px"
	 viewBox="0 0 295.2 295.2" style="enable-background:new 0 0 295.2 295.2;" xml:space="preserve">
<style type="text/css">
	.st0{fill:#03038E;}
</style>
<g>
	<g>
		<g>
			<path class="st0" d="M252.4,100h-69.8l3.4-20.3l-38.4-49.3l-38.4,49.3l3.4,20.3H42.9c-10.5,0-19,8.5-19,19v123.8
				c0,10.5,8.5,19,19,19h61.9v23.8h-19v9.5h19h85.7h19v-9.5h-19v-23.8h61.9c10.5,0,19-8.5,19-19V119
				C271.4,108.5,262.9,100,252.4,100z M147.6,81c2.6,0,4.8,2.1,4.8,4.8s-2.1,4.8-4.8,4.8s-4.8-2.1-4.8-4.8S145,81,147.6,81z
				 M142.9,52v20.3c-5.5,2-9.5,7.2-9.5,13.4c0,7.9,6.4,14.3,14.3,14.3c7.9,0,14.3-6.4,14.3-14.3c0-6.2-4-11.4-9.5-13.4V52l23.5,30.3
				l-8.5,51.1h-39.6l-8.5-51.1L142.9,52z M123.8,142.9h47.6c2.6,0,4.8,2.1,4.8,4.8s-2.1,4.8-4.8,4.8h-47.6c-2.6,0-4.8-2.1-4.8-4.8
				S121.2,142.9,123.8,142.9z M166.7,195.2h-38.1v-33.3h38.1L166.7,195.2z M118.4,134.4c-5.2,2.1-8.8,7.2-8.8,13.2
				c0,6.2,4,11.4,9.5,13.4v34.2c0,5.3,4.3,9.5,9.5,9.5h38.1c5.3,0,9.5-4.3,9.5-9.5V161c5.5-2,9.5-7.2,9.5-13.4
				c0-6-3.7-11.1-8.8-13.2l1-5.8h65v104.8H52.4V128.6h65L118.4,134.4z M181,285.7h-66.7v-23.8H181V285.7z M261.9,242.9L261.9,242.9
				c0,5.3-4.3,9.5-9.5,9.5h-61.9h-85.7H42.9c-5.3,0-9.5-4.3-9.5-9.5V119c0-5.3,4.3-9.5,9.5-9.5h71.4l1.6,9.5H42.9v123.8h209.5V119
				h-73l1.6-9.5h71.4c5.3,0,9.5,4.3,9.5,9.5L261.9,242.9L261.9,242.9z"/>
			<path class="st0" d="M71.4,28.6c6.2,0,11.4-4,13.4-9.5h28.6C96.6,29.2,84.6,46.4,81.7,66.7H71.4v28.6H100V66.7h-8.7
				c4.6-27,28-47.6,56.3-47.6s51.7,20.6,56.3,47.6h-8.7v28.6h28.6V66.7h-10.3c-2.9-20.2-14.9-37.5-31.7-47.6h23.9
				c2,5.5,7.2,9.5,13.4,9.5c7.9,0,14.3-6.4,14.3-14.3S226.9,0,219,0c-6.2,0-11.4,4-13.4,9.5H84.8C82.9,4,77.6,0,71.4,0
				c-7.9,0-14.3,6.4-14.3,14.3S63.6,28.6,71.4,28.6z M90.5,85.7H81v-9.5h9.5V85.7z M204.8,76.2h9.5v9.5h-9.5V76.2z M219,9.5
				c2.6,0,4.8,2.1,4.8,4.8S221.7,19,219,19s-4.8-2.1-4.8-4.8S216.4,9.5,219,9.5z M71.4,9.5c2.6,0,4.8,2.1,4.8,4.8S74.1,19,71.4,19
				s-4.8-2.1-4.8-4.8S68.8,9.5,71.4,9.5z"/>
			<rect x="185.7" y="181" class="st0" width="9.5" height="9.5"/>
			<rect x="204.8" y="181" class="st0" width="9.5" height="9.5"/>
			<rect x="223.8" y="181" class="st0" width="9.5" height="9.5"/>
			<rect x="61.9" y="181" class="st0" width="9.5" height="9.5"/>
			<rect x="81" y="181" class="st0" width="9.5" height="9.5"/>
			<rect x="100" y="181" class="st0" width="9.5" height="9.5"/>
		</g>
	</g>
</g>
</svg>
